{"title":"Les grandes familles 1958 Fr.avi","uid":7844465,"size":734779392,"categoryP":"video","categoryS":"movies","magnet":"?xt=urn:btih:5f3bbda9baa78a3c470fc3474f4f7a39d8ff0b23&amp;dn=Les+grandes+familles+1958+Fr.avi&amp;tr=udp%3A%2F%2Ftracker.openbittorrent.com%3A80&amp;tr=udp%3A%2F%2Fopen.demonii.com%3A1337&amp;tr=udp%3A%2F%2Ftracker.coppersurfer.tk%3A6969&amp;tr=udp%3A%2F%2Fexodus.desync.com%3A6969","seeders":0,"leechers":1,"uploader":"Bonie75","files":-1,"time":1353433208,"description":"FrancaisAudiardLes grandes familles [Audiard - Jean Gabin - Bernard Blier 1958] (Fr).avi\nFormat                                   : AVI\nFormat/Info                              : Audio Video Interleave\nFile size                                : 701 MiB\nDuration                                 : 1h 28mn\nOverall bit rate mode                    : Variable\nOverall bit rate                         : 1 104 Kbps\nWriting application                      : VirtualDubMod 1.5.4.1 (build 2178/release)\nWriting library                          : VirtualDubMod build 2178/release\n\nVideo\nID                                       : 0\nFormat                                   : MPEG-4 Visual\nFormat settings, BVOP                    : 1\nFormat settings, QPel                    : No\nFormat settings, GMC                     : No warppoints\nFormat settings, Matrix                  : Default (H.263)\nMuxing mode                              : Packed bitstream\nCodec ID                                 : DX50\nCodec ID/Hint                            : DivX 5\nDuration                                 : 1h 28mn\nBit rate                                 : 955 Kbps\nWidth                                    : 520 pixels\nHeight                                   : 304 pixels\nDisplay aspect ratio                     : 1.711\nFrame rate                               : 25.000 fps\nColor space                              : YUV\nChroma subsampling                       : 4:2:0\nBit depth                                : 8 bits\nScan type                                : Progressive\nCompression mode                         : Lossy\nBits/(Pixel*Frame)                       : 0.242\nStream size                              : 606 MiB (87%)\nWriting library                          : DivX 5.1.0 (UTC 2003-09-02)\n\nAudio\nID                                       : 1\nFormat                                   : MPEG Audio\nFormat version                           : Version 1\nFormat profile                           : Layer 3\nMode                                     : Joint stereo\nMode extension                           : MS Stereo\nCodec ID                                 : 55\nCodec ID/Hint                            : MP3\nDuration                                 : 1h 28mn\nBit rate mode                            : Variable\nBit rate                                 : 136 Kbps\nNominal bit rate                         : 128 Kbps\nChannel(s)                               : 2 channels\nSampling rate                            : 48.0 KHz\nCompression mode                         : Lossy\nStream size                              : 86.3 MiB (12%)\nAlignment                                : Aligned on interleaves\nInterleave, duration                     : 24 ms (0.60 video frame)\nInterleave, preload duration             : 494 ms\nWriting library                          : LAME3.90.\nEncoding settings                        : -m j -V 4 -q 2 -lowpass 17.6 --abr 128\n","torrent":{"xt":"urn:btih:5f3bbda9baa78a3c470fc3474f4f7a39d8ff0b23","amp;dn":"Les+grandes+familles+1958+Fr.avi","amp;tr":["udp%3A%2F%2Ftracker.openbittorrent.com%3A80","udp%3A%2F%2Fopen.demonii.com%3A1337","udp%3A%2F%2Ftracker.coppersurfer.tk%3A6969","udp%3A%2F%2Fexodus.desync.com%3A6969"],"infoHash":"5f3bbda9baa78a3c470fc3474f4f7a39d8ff0b23","infoHashBuffer":{"type":"Buffer","data":[95,59,189,169,186,167,138,60,71,15,195,71,79,79,122,57,216,255,11,35]},"announce":[],"urlList":[]}}